<svg width="350" height="61" viewBox="0 0 350 61" fill="none" xmlns="http://www.w3.org/2000/svg">
<path d="M132.465 33.619C132.465 34.6796 133.203 35.4174 134.263 35.4174H138.321C138.736 35.4174 139.244 35.3252 139.612 34.9102C140.028 34.4952 140.12 33.9879 140.12 33.619V14.6666L152.155 34.2185C152.616 35.0024 153.262 35.4174 154.092 35.4174H157.735C158.611 35.4174 159.257 35.0024 159.718 34.2185L171.753 14.6666V33.619C171.753 33.9879 171.846 34.4952 172.261 34.9102C172.629 35.3252 173.137 35.4174 173.552 35.4174H177.61C178.025 35.4174 178.532 35.3252 178.901 34.9102C179.316 34.4952 179.408 33.9879 179.408 33.619V4.93671C179.408 4.5678 179.316 4.06057 178.901 3.64555C178.532 3.23053 178.025 3.13831 177.61 3.13831H171.431C171.062 3.13831 170.739 3.23053 170.416 3.41498C169.909 3.64554 169.678 4.01445 169.54 4.33724L155.937 26.3793L142.333 4.33724C142.195 4.01445 141.964 3.64554 141.457 3.41498C141.134 3.23053 140.811 3.13831 140.489 3.13831H134.263C133.203 3.13831 132.465 3.8761 132.465 4.93671L132.465 33.619Z" fill="white"/>
<path d="M182.636 33.7574C182.636 34.3568 182.866 34.818 183.374 35.1869C183.743 35.3252 184.065 35.4174 184.342 35.4174H189.092C189.276 35.4174 189.599 35.3252 190.06 35.1869C190.567 34.8641 190.844 34.4952 191.028 34.1724L193.565 30.2989L197.992 23.3358L205.37 11.9459C205.508 11.8076 205.6 11.8076 205.739 11.9459L217.59 30.2989L219.157 32.6507L220.126 34.1724C220.264 34.4029 220.541 34.8641 221.094 35.1869C221.325 35.3252 221.648 35.4174 222.016 35.4174H226.766C227.043 35.4174 227.366 35.3252 227.734 35.1869C228.242 34.818 228.472 34.3568 228.472 33.7574C228.426 33.4346 228.334 33.1118 228.149 32.8351L209.704 4.38336C209.289 3.64555 208.644 3.13831 207.767 3.13831H203.341C202.972 3.13831 202.649 3.23053 202.372 3.41498C201.865 3.73777 201.588 4.10667 201.45 4.33724L182.959 32.789C182.82 33.1118 182.636 33.3885 182.636 33.7574V33.7574Z" fill="white"/>
<path d="M219.388 3.13831C218.327 3.13831 217.59 3.8761 217.59 4.93671V10.0091C217.59 10.1475 217.636 10.1936 217.774 10.1936H245.857C247.01 10.1936 247.517 10.3781 247.748 10.7008C247.978 10.9314 248.209 11.3925 248.209 12.4993V17.9406C248.209 19.7851 247.701 20.2463 245.857 20.2463H229.164C228.98 20.2463 228.887 20.4307 229.026 20.569C231.746 23.1514 239.032 30.2067 244.335 35.3713C244.335 35.4174 244.381 35.4174 244.474 35.4174H254.941C255.08 35.4174 255.218 35.233 255.08 35.0947C253.466 33.4807 249.085 29.3305 247.148 27.486C247.01 27.3477 247.102 27.1632 247.286 27.1632C253.051 26.5637 255.91 24.4425 255.91 18.4479V12.0381C255.91 6.274 252.774 3.13831 247.01 3.13831H219.388Z" fill="white"/>
<path d="M261.443 26.7021C261.443 32.6507 264.763 35.6019 270.528 35.6019H293.4C299.164 35.6019 302.253 32.4662 302.253 26.7021V19.6468C302.253 18.4018 301.515 17.6178 300.27 17.6178H283.531C282.286 17.6178 281.456 18.4018 281.456 19.6468V22.598C281.456 23.8431 282.286 24.627 283.531 24.627H294.599V26.241C294.599 27.3477 294.368 27.8088 294.137 28.0394C293.907 28.3622 293.4 28.5466 292.293 28.5466H271.68C270.528 28.5466 269.928 28.27 269.605 27.9472C269.282 27.7166 269.098 27.1171 269.098 26.241V12.3148C269.098 11.4387 269.282 10.8392 269.605 10.6087C269.928 10.2859 270.528 10.0553 271.68 10.0553H301.838C302.069 10.0553 302.115 9.96307 302.023 9.82473C301.423 5.02897 297.965 3 293.353 3H270.528C264.579 3 261.443 5.95124 261.443 11.8998V26.7021Z" fill="white"/>
<path d="M307.787 33.6653C307.787 34.0342 307.925 34.5414 308.294 34.9103C308.34 35.0486 308.432 35.0486 308.478 35.0948C308.801 35.3253 309.17 35.4175 309.585 35.4175H343.202C343.57 35.4175 344.032 35.3714 344.401 35.0486L344.539 34.9103C344.908 34.4953 345 33.988 345 33.6191V30.1607C345 29.884 345 29.6995 344.954 29.6534C344.816 28.7773 343.986 28.3622 343.202 28.3622H309.539C308.94 28.3622 308.617 28.5467 308.202 28.9617C307.971 29.2845 307.833 29.6534 307.833 30.0684C307.787 30.1145 307.787 30.299 307.787 30.6218V33.6653ZM307.833 4.79848C307.833 4.98293 307.787 5.16739 307.787 5.35184V8.4414C307.787 8.81031 307.879 9.31756 308.294 9.73258C308.432 9.77869 308.386 9.8248 308.525 9.87092C308.847 10.1937 309.262 10.1937 309.585 10.1937H343.017C343.386 10.1937 343.893 10.1015 344.308 9.73256C344.723 9.31754 344.816 8.81032 344.816 8.3953V4.93681C344.816 4.8907 344.769 4.75235 344.723 4.42956C344.585 3.83009 344.354 3.64564 343.847 3.32284C343.617 3.18451 343.34 3.1384 343.017 3.1384H309.816C309.447 3.09229 308.893 3.1845 308.478 3.55341L308.248 3.73787C307.925 4.06066 307.879 4.47568 307.833 4.79848H307.833ZM307.787 21.307C307.833 21.722 308.017 22.0448 308.294 22.2753C308.34 22.4137 308.432 22.4137 308.478 22.4598C308.847 22.7826 309.262 22.7826 309.585 22.7826H310.139H342.556C343.663 22.7826 344.354 22.0909 344.354 20.9841V17.5718C344.354 17.2951 344.354 17.1106 344.308 17.0645C344.262 16.7417 343.985 16.2345 343.663 16.0962C343.34 15.7734 342.925 15.7734 342.602 15.7734H309.908C309.493 15.7273 308.94 15.7734 308.525 16.1423L308.294 16.3267C308.017 16.6495 307.879 17.0184 307.879 17.3412L307.787 17.8946V21.307Z" fill="#FF5E14"/>
<path fill-rule="evenodd" clip-rule="evenodd" d="M119.927 19.7095L94.7066 12.6793H94.6958C94.6885 12.6781 94.6861 12.6744 94.6788 12.6732L46.3922 0.0496231C46.2713 0.0178756 46.1482 0.001513 46.0256 0H45.9882C45.6609 0.004029 45.3393 0.113846 45.0753 0.319554C44.6988 0.607636 44.4798 1.05308 44.4798 1.52636V9.82024L24.1905 4.53307C23.7329 4.41081 23.2463 4.51249 22.8711 4.80058C22.4971 5.09108 22.2768 5.5353 22.2768 6.00979V14.4162L1.91127 9.10124C1.45615 8.9814 0.967136 9.08187 0.59311 9.37115C0.220292 9.65924 0 10.1059 0 10.5792V45.8306C0 46.5193 0.461173 47.1209 1.1257 47.3061L49.3977 60.4683C49.5273 60.5022 49.664 60.5228 49.7984 60.5228C49.9872 60.5228 50.1724 60.478 50.3504 60.409L119.824 46.2046C120.534 46.0582 121.043 45.4299 121.043 44.7085V21.1801C121.042 20.4962 120.584 19.8934 119.927 19.7095V19.7095ZM92.7651 22.2514V22.8199L72.4492 17.1119C72.4432 17.1094 72.4407 17.1119 72.4359 17.1095C72.4311 17.1082 72.4262 17.1046 72.419 17.1034L47.5313 10.6167V3.50419L92.7639 15.3289V22.2514L92.7651 22.2514ZM70.5065 27.4187L50.2112 21.703C50.2095 21.702 50.2074 21.7021 50.2052 21.7022C50.2026 21.7024 50.1998 21.7026 50.1978 21.7006C50.1906 21.7006 50.1882 21.697 50.1809 21.6946L25.3283 15.2115V7.984L70.5065 19.7591L70.5065 27.4187ZM48.2708 56.9968L35.5819 53.5362V37.4399L11.4422 31.1444V46.9551L3.05513 44.6674V12.5546L48.272 24.3527V56.9968L48.2708 56.9968ZM109.025 31.5378L100.003 33.3268V29.3881L109.025 27.7007V31.5378ZM89.267 35.3483L80.2505 37.1421V33.213L89.267 31.5136V35.3483ZM68.4318 39.2664L59.4092 41.0651V37.1433L68.4318 35.4439V39.2664ZM89.267 44.6407L80.2505 46.4358V42.5116L89.267 40.817V44.6407ZM68.4318 48.5722L59.4092 50.3649V46.4358L68.4318 44.7509V48.5722Z" fill="#FF5E14"/>
<path d="M138.103 49.338V52H137.014V49.316L133.956 44.3H135.133L137.597 48.359L140.072 44.3H141.161L138.103 49.338ZM146.721 50.075H142.629L141.782 52H140.649L144.136 44.3H145.225L148.723 52H147.568L146.721 50.075ZM146.336 49.195L144.675 45.422L143.014 49.195H146.336ZM152.875 44.3C153.872 44.3 154.657 44.5383 155.229 45.015C155.801 45.4917 156.087 46.148 156.087 46.984C156.087 47.82 155.801 48.4763 155.229 48.953C154.657 49.4297 153.872 49.668 152.875 49.668H150.972V52H149.872V44.3H152.875ZM152.842 48.711C153.538 48.711 154.07 48.5643 154.437 48.271C154.803 47.9703 154.987 47.5413 154.987 46.984C154.987 46.4267 154.803 46.0013 154.437 45.708C154.07 45.4073 153.538 45.257 152.842 45.257H150.972V48.711H152.842ZM157.703 44.3H158.803V52H157.703V44.3ZM171.201 52L171.19 46.39L168.407 51.065H167.901L165.118 46.423V52H164.062V44.3H164.964L168.176 49.712L171.344 44.3H172.246L172.257 52H171.201ZM177.758 52.088C176.731 52.088 175.932 51.7947 175.36 51.208C174.788 50.6213 174.502 49.778 174.502 48.678V44.3H175.602V48.634C175.602 50.284 176.324 51.109 177.769 51.109C178.473 51.109 179.012 50.9073 179.386 50.504C179.76 50.0933 179.947 49.47 179.947 48.634V44.3H181.014V48.678C181.014 49.7853 180.728 50.6323 180.156 51.219C179.584 51.7983 178.785 52.088 177.758 52.088ZM176.746 43.486C176.592 43.486 176.46 43.4347 176.35 43.332C176.24 43.222 176.185 43.0863 176.185 42.925C176.185 42.7637 176.24 42.628 176.35 42.518C176.46 42.408 176.592 42.353 176.746 42.353C176.9 42.353 177.032 42.408 177.142 42.518C177.252 42.628 177.307 42.7637 177.307 42.925C177.307 43.0863 177.252 43.222 177.142 43.332C177.032 43.4347 176.9 43.486 176.746 43.486ZM178.792 43.486C178.638 43.486 178.506 43.4347 178.396 43.332C178.286 43.222 178.231 43.0863 178.231 42.925C178.231 42.7637 178.286 42.628 178.396 42.518C178.506 42.408 178.638 42.353 178.792 42.353C178.946 42.353 179.078 42.408 179.188 42.518C179.298 42.628 179.353 42.7637 179.353 42.925C179.353 43.0863 179.298 43.222 179.188 43.332C179.078 43.4347 178.946 43.486 178.792 43.486ZM189.891 44.3V52H188.791V48.568H184.369V52H183.269V44.3H184.369V47.611H188.791V44.3H189.891ZM197.784 51.043V52H192.196V44.3H197.63V45.257H193.296V47.622H197.157V48.557H193.296V51.043H197.784ZM206.187 44.3V52H205.285L200.665 46.258V52H199.565V44.3H200.467L205.087 50.042V44.3H206.187ZM208.492 44.3H211.737C212.551 44.3 213.273 44.4613 213.904 44.784C214.535 45.1067 215.022 45.5613 215.367 46.148C215.719 46.7273 215.895 47.3947 215.895 48.15C215.895 48.9053 215.719 49.5763 215.367 50.163C215.022 50.7423 214.535 51.1933 213.904 51.516C213.273 51.8387 212.551 52 211.737 52H208.492V44.3ZM211.671 51.043C212.294 51.043 212.841 50.922 213.31 50.68C213.787 50.438 214.153 50.1007 214.41 49.668C214.667 49.228 214.795 48.722 214.795 48.15C214.795 47.578 214.667 47.0757 214.41 46.643C214.153 46.203 213.787 45.862 213.31 45.62C212.841 45.378 212.294 45.257 211.671 45.257H209.592V51.043H211.671ZM217.58 44.3H218.68V52H217.58V44.3ZM218.13 43.475C217.946 43.475 217.792 43.4127 217.668 43.288C217.543 43.1633 217.481 43.0093 217.481 42.826C217.481 42.6427 217.543 42.4887 217.668 42.364C217.792 42.2393 217.946 42.177 218.13 42.177C218.313 42.177 218.467 42.2393 218.592 42.364C218.716 42.4887 218.779 42.6427 218.779 42.826C218.779 43.0093 218.716 43.1633 218.592 43.288C218.467 43.4127 218.313 43.475 218.13 43.475ZM223.229 52.088C222.65 52.088 222.089 52 221.546 51.824C221.011 51.6407 220.589 51.406 220.281 51.12L220.688 50.262C220.981 50.526 221.355 50.7423 221.81 50.911C222.272 51.0723 222.745 51.153 223.229 51.153C223.867 51.153 224.344 51.0467 224.659 50.834C224.974 50.614 225.132 50.3243 225.132 49.965C225.132 49.701 225.044 49.4883 224.868 49.327C224.699 49.1583 224.487 49.03 224.23 48.942C223.981 48.854 223.625 48.755 223.163 48.645C222.584 48.5057 222.114 48.3663 221.755 48.227C221.403 48.0877 221.099 47.875 220.842 47.589C220.593 47.2957 220.468 46.9033 220.468 46.412C220.468 46.0013 220.574 45.631 220.787 45.301C221.007 44.971 221.337 44.707 221.777 44.509C222.217 44.311 222.763 44.212 223.416 44.212C223.871 44.212 224.318 44.2707 224.758 44.388C225.198 44.5053 225.576 44.674 225.891 44.894L225.528 45.774C225.205 45.5687 224.861 45.4147 224.494 45.312C224.127 45.202 223.768 45.147 223.416 45.147C222.793 45.147 222.323 45.2607 222.008 45.488C221.7 45.7153 221.546 46.0087 221.546 46.368C221.546 46.632 221.634 46.8483 221.81 47.017C221.986 47.1783 222.202 47.3067 222.459 47.402C222.723 47.49 223.079 47.5853 223.526 47.688C224.105 47.8273 224.571 47.9667 224.923 48.106C225.275 48.2453 225.576 48.458 225.825 48.744C226.082 49.03 226.21 49.415 226.21 49.899C226.21 50.3023 226.1 50.6727 225.88 51.01C225.66 51.34 225.326 51.604 224.879 51.802C224.432 51.9927 223.882 52.088 223.229 52.088ZM227.817 44.3H228.917V51.043H233.086V52H227.817V44.3ZM234.348 44.3H235.448V52H234.348V44.3ZM234.898 43.475C234.715 43.475 234.561 43.4127 234.436 43.288C234.312 43.1633 234.249 43.0093 234.249 42.826C234.249 42.6427 234.312 42.4887 234.436 42.364C234.561 42.2393 234.715 42.177 234.898 42.177C235.082 42.177 235.236 42.2393 235.36 42.364C235.485 42.4887 235.547 42.6427 235.547 42.826C235.547 43.0093 235.485 43.1633 235.36 43.288C235.236 43.4127 235.082 43.475 234.898 43.475ZM240.262 48.579L238.854 50.009V52H237.754V44.3H238.854V48.601L243.034 44.3H244.288L240.999 47.765L244.497 52H243.21L240.262 48.579ZM250.858 52.088C250.279 52.088 249.718 52 249.175 51.824C248.64 51.6407 248.218 51.406 247.91 51.12L248.317 50.262C248.61 50.526 248.984 50.7423 249.439 50.911C249.901 51.0723 250.374 51.153 250.858 51.153C251.496 51.153 251.973 51.0467 252.288 50.834C252.603 50.614 252.761 50.3243 252.761 49.965C252.761 49.701 252.673 49.4883 252.497 49.327C252.328 49.1583 252.116 49.03 251.859 48.942C251.61 48.854 251.254 48.755 250.792 48.645C250.213 48.5057 249.743 48.3663 249.384 48.227C249.032 48.0877 248.728 47.875 248.471 47.589C248.222 47.2957 248.097 46.9033 248.097 46.412C248.097 46.0013 248.203 45.631 248.416 45.301C248.636 44.971 248.966 44.707 249.406 44.509C249.846 44.311 250.392 44.212 251.045 44.212C251.5 44.212 251.947 44.2707 252.387 44.388C252.827 44.5053 253.205 44.674 253.52 44.894L253.157 45.774C252.834 45.5687 252.49 45.4147 252.123 45.312C251.756 45.202 251.397 45.147 251.045 45.147C250.422 45.147 249.952 45.2607 249.637 45.488C249.329 45.7153 249.175 46.0087 249.175 46.368C249.175 46.632 249.263 46.8483 249.439 47.017C249.615 47.1783 249.831 47.3067 250.088 47.402C250.352 47.49 250.708 47.5853 251.155 47.688C251.734 47.8273 252.2 47.9667 252.552 48.106C252.904 48.2453 253.205 48.458 253.454 48.744C253.711 49.03 253.839 49.415 253.839 49.899C253.839 50.3023 253.729 50.6727 253.509 51.01C253.289 51.34 252.955 51.604 252.508 51.802C252.061 51.9927 251.511 52.088 250.858 52.088ZM260.352 50.075H256.26L255.413 52H254.28L257.767 44.3H258.856L262.354 52H261.199L260.352 50.075ZM259.967 49.195L258.306 45.422L256.645 49.195H259.967ZM270.125 44.3V52H269.223L264.603 46.258V52H263.503V44.3H264.405L269.025 50.042V44.3H270.125ZM272.528 52.066C272.323 52.066 272.147 51.9963 272 51.857C271.854 51.7103 271.78 51.527 271.78 51.307C271.78 51.0943 271.854 50.9183 272 50.779C272.147 50.6323 272.323 50.559 272.528 50.559C272.734 50.559 272.906 50.6287 273.045 50.768C273.185 50.9073 273.254 51.087 273.254 51.307C273.254 51.527 273.181 51.7103 273.034 51.857C272.895 51.9963 272.726 52.066 272.528 52.066ZM279.405 45.257H276.765V44.3H283.134V45.257H280.494V52H279.405V45.257ZM284.332 44.3H285.432V52H284.332V44.3ZM284.882 43.475C284.698 43.475 284.544 43.4127 284.42 43.288C284.295 43.1633 284.233 43.0093 284.233 42.826C284.233 42.6427 284.295 42.4887 284.42 42.364C284.544 42.2393 284.698 42.177 284.882 42.177C285.065 42.177 285.219 42.2393 285.344 42.364C285.468 42.4887 285.531 42.6427 285.531 42.826C285.531 43.0093 285.468 43.1633 285.344 43.288C285.219 43.4127 285.065 43.475 284.882 43.475ZM291.18 52.088C290.41 52.088 289.713 51.9193 289.09 51.582C288.474 51.2373 287.99 50.768 287.638 50.174C287.286 49.5727 287.11 48.898 287.11 48.15C287.11 47.402 287.286 46.731 287.638 46.137C287.99 45.5357 288.478 45.0663 289.101 44.729C289.724 44.3843 290.421 44.212 291.191 44.212C291.792 44.212 292.342 44.3147 292.841 44.52C293.34 44.718 293.765 45.015 294.117 45.411L293.402 46.104C292.823 45.4953 292.1 45.191 291.235 45.191C290.663 45.191 290.146 45.3193 289.684 45.576C289.222 45.8327 288.859 46.1883 288.595 46.643C288.338 47.0903 288.21 47.5927 288.21 48.15C288.21 48.7073 288.338 49.2133 288.595 49.668C288.859 50.1153 289.222 50.4673 289.684 50.724C290.146 50.9807 290.663 51.109 291.235 51.109C292.093 51.109 292.815 50.801 293.402 50.185L294.117 50.878C293.765 51.274 293.336 51.5747 292.83 51.78C292.331 51.9853 291.781 52.088 291.18 52.088ZM295.925 52.066C295.72 52.066 295.544 51.9963 295.397 51.857C295.25 51.7103 295.177 51.527 295.177 51.307C295.177 51.0943 295.25 50.9183 295.397 50.779C295.544 50.6323 295.72 50.559 295.925 50.559C296.13 50.559 296.303 50.6287 296.442 50.768C296.581 50.9073 296.651 51.087 296.651 51.307C296.651 51.527 296.578 51.7103 296.431 51.857C296.292 51.9963 296.123 52.066 295.925 52.066ZM301.272 44.3H302.372V51.043H306.541V52H301.272V44.3ZM308.613 45.257H305.973V44.3H312.342V45.257H309.702V52H308.613V45.257ZM313.54 44.3H316.785C317.599 44.3 318.321 44.4613 318.952 44.784C319.582 45.1067 320.07 45.5613 320.415 46.148C320.767 46.7273 320.943 47.3947 320.943 48.15C320.943 48.9053 320.767 49.5763 320.415 50.163C320.07 50.7423 319.582 51.1933 318.952 51.516C318.321 51.8387 317.599 52 316.785 52H313.54V44.3ZM316.719 51.043C317.342 51.043 317.888 50.922 318.358 50.68C318.834 50.438 319.201 50.1007 319.458 49.668C319.714 49.228 319.843 48.722 319.843 48.15C319.843 47.578 319.714 47.0757 319.458 46.643C319.201 46.203 318.834 45.862 318.358 45.62C317.888 45.378 317.342 45.257 316.719 45.257H314.64V51.043H316.719ZM322.512 52.066C322.306 52.066 322.13 51.9963 321.984 51.857C321.837 51.7103 321.764 51.527 321.764 51.307C321.764 51.0943 321.837 50.9183 321.984 50.779C322.13 50.6323 322.306 50.559 322.512 50.559C322.717 50.559 322.889 50.6287 323.029 50.768C323.168 50.9073 323.238 51.087 323.238 51.307C323.238 51.527 323.164 51.7103 323.018 51.857C322.878 51.9963 322.71 52.066 322.512 52.066ZM330.103 52.088C329.524 52.088 328.963 52 328.42 51.824C327.885 51.6407 327.463 51.406 327.155 51.12L327.562 50.262C327.855 50.526 328.229 50.7423 328.684 50.911C329.146 51.0723 329.619 51.153 330.103 51.153C330.741 51.153 331.218 51.0467 331.533 50.834C331.848 50.614 332.006 50.3243 332.006 49.965C332.006 49.701 331.918 49.4883 331.742 49.327C331.573 49.1583 331.361 49.03 331.104 48.942C330.855 48.854 330.499 48.755 330.037 48.645C329.458 48.5057 328.988 48.3663 328.629 48.227C328.277 48.0877 327.973 47.875 327.716 47.589C327.467 47.2957 327.342 46.9033 327.342 46.412C327.342 46.0013 327.448 45.631 327.661 45.301C327.881 44.971 328.211 44.707 328.651 44.509C329.091 44.311 329.637 44.212 330.29 44.212C330.745 44.212 331.192 44.2707 331.632 44.388C332.072 44.5053 332.45 44.674 332.765 44.894L332.402 45.774C332.079 45.5687 331.735 45.4147 331.368 45.312C331.001 45.202 330.642 45.147 330.29 45.147C329.667 45.147 329.197 45.2607 328.882 45.488C328.574 45.7153 328.42 46.0087 328.42 46.368C328.42 46.632 328.508 46.8483 328.684 47.017C328.86 47.1783 329.076 47.3067 329.333 47.402C329.597 47.49 329.953 47.5853 330.4 47.688C330.979 47.8273 331.445 47.9667 331.797 48.106C332.149 48.2453 332.45 48.458 332.699 48.744C332.956 49.03 333.084 49.415 333.084 49.899C333.084 50.3023 332.974 50.6727 332.754 51.01C332.534 51.34 332.2 51.604 331.753 51.802C331.306 51.9927 330.756 52.088 330.103 52.088ZM329.971 54.464C329.59 54.464 329.263 54.3833 328.992 54.222L329.223 53.683C329.443 53.8077 329.692 53.87 329.971 53.87C330.382 53.87 330.587 53.7233 330.587 53.43C330.587 53.298 330.536 53.1917 330.433 53.111C330.33 53.0377 330.173 53.001 329.96 53.001H329.663L329.938 51.923H330.543L330.378 52.55C330.686 52.5793 330.921 52.6747 331.082 52.836C331.251 53.0047 331.335 53.2137 331.335 53.463C331.335 53.771 331.21 54.013 330.961 54.189C330.712 54.3723 330.382 54.464 329.971 54.464ZM336.113 45.257H333.473V44.3H339.842V45.257H337.202V52H336.113V45.257ZM341.04 44.3H342.14V52H341.04V44.3ZM341.59 43.475C341.406 43.475 341.252 43.4127 341.128 43.288C341.003 43.1633 340.941 43.0093 340.941 42.826C340.941 42.6427 341.003 42.4887 341.128 42.364C341.252 42.2393 341.406 42.177 341.59 42.177C341.773 42.177 341.927 42.2393 342.052 42.364C342.176 42.4887 342.239 42.6427 342.239 42.826C342.239 43.0093 342.176 43.1633 342.052 43.288C341.927 43.4127 341.773 43.475 341.59 43.475ZM344.544 52.066C344.339 52.066 344.163 51.9963 344.016 51.857C343.869 51.7103 343.796 51.527 343.796 51.307C343.796 51.0943 343.869 50.9183 344.016 50.779C344.163 50.6323 344.339 50.559 344.544 50.559C344.749 50.559 344.922 50.6287 345.061 50.768C345.2 50.9073 345.27 51.087 345.27 51.307C345.27 51.527 345.197 51.7103 345.05 51.857C344.911 51.9963 344.742 52.066 344.544 52.066Z" fill="white"/>
</svg>
