<?xml version="1.0" standalone="no"?>
<!DOCTYPE svg PUBLIC "-//W3C//DTD SVG 20010904//EN"
 "http://www.w3.org/TR/2001/REC-SVG-20010904/DTD/svg10.dtd">
<svg version="1.0" xmlns="http://www.w3.org/2000/svg"
 width="270.000000pt" height="270.000000pt" viewBox="0 0 270.000000 270.000000"
 preserveAspectRatio="xMidYMid meet">
<metadata>
Created by potrace 1.14, written by Peter Selinger 2001-2017
</metadata>
<g transform="translate(0.000000,270.000000) scale(0.100000,-0.100000)"
fill="#000000" stroke="none">
<path d="M1116 1814 c-3 -9 -6 -45 -6 -81 0 -63 -1 -65 -22 -60 -13 3 -68 17
-123 31 -55 15 -107 28 -116 30 -9 3 -32 9 -52 14 -19 5 -39 7 -46 3 -6 -4
-11 -40 -12 -84 -1 -67 -4 -77 -18 -73 -20 7 -98 25 -131 32 -14 2 -36 9 -50
14 -67 25 -153 41 -164 30 -14 -14 -16 -607 -1 -625 5 -6 64 -26 130 -44 66
-18 219 -59 340 -92 121 -33 227 -62 235 -64 8 -2 38 -11 67 -19 51 -14 58
-13 415 60 200 41 453 93 563 115 110 22 217 45 238 50 l37 10 -2 217 -3 217
-115 33 c-240 68 -1127 302 -1146 302 -7 0 -15 -7 -18 -16z m132 -65 c61 -17
405 -107 472 -124 145 -37 186 -49 194 -56 9 -8 15 -119 7 -119 -2 0 -70 18
-150 41 -80 22 -247 67 -370 99 -123 33 -226 61 -229 65 -6 6 -11 115 -5 115
2 0 38 -9 81 -21z m-243 -109 c432 -113 535 -140 540 -140 3 0 5 -30 5 -66 0
-58 -2 -65 -17 -60 -70 22 -363 103 -535 147 l-208 54 0 58 c0 38 4 57 12 57
7 0 98 -22 203 -50z m-250 -110 c88 -23 212 -55 275 -71 63 -16 122 -33 130
-38 13 -7 15 -49 15 -278 l0 -270 -85 23 c-47 13 -95 27 -106 30 -20 5 -21 11
-20 136 1 77 -3 133 -9 136 -21 14 -390 109 -395 101 -3 -4 -4 -62 -4 -128 1
-67 -1 -123 -5 -125 -3 -2 -35 6 -70 18 l-65 21 1 260 c1 143 2 263 2 267 1 4
40 -4 89 -17 48 -13 159 -42 247 -65z m1441 -201 c1 -25 -3 -28 -59 -39 -32
-6 -65 -14 -72 -16 -7 -3 -14 3 -17 13 -9 38 2 50 55 61 77 15 92 12 93 -19z
m-331 -57 c1 -12 -3 -26 -9 -31 -9 -7 -113 -31 -135 -31 -4 0 -7 14 -7 30 -1
23 3 31 20 35 11 2 39 8 61 14 55 13 68 10 70 -17z m-349 -65 c4 -27 -20 -44
-73 -51 -26 -4 -55 -9 -65 -11 -13 -2 -16 4 -14 29 2 29 6 32 57 43 69 15 92
12 95 -10z m349 -98 c2 -24 -3 -28 -50 -38 -108 -24 -103 -25 -102 11 2 31 5
33 57 44 78 17 94 14 95 -17z m-350 -59 c-1 -17 -4 -32 -6 -34 -11 -7 -139
-32 -140 -27 -9 54 -6 61 30 67 20 3 52 10 71 14 19 4 38 8 41 9 4 1 5 -13 4
-29z"/>
</g>
</svg>
